<svg version="1.1" xmlns="http://www.w3.org/2000/svg" viewBox="0 0 765.3430880845598 613.4834432294344" width="765.3430880845598" height="613.4834432294344">
  <!-- svg-source:excalidraw -->
  
  <defs>
    <style>
      @font-face {
        font-family: "Virgil";
        src: url("https://excalidraw.com/FG_Virgil.woff2");
      }
      @font-face {
        font-family: "Cascadia";
        src: url("https://excalidraw.com/Cascadia.woff2");
      }
    </style>
  </defs>
  <g transform="translate(10 235.73129871846498) rotate(0 35.71544807553926 54.622007449264345)"><path d="M-1.6725610699504614 -0.1954075787216425 L70.91166367867372 0.12932454608380795 L70.05606016257188 108.53601369283102 L0.07379976846277714 107.63263836524389" stroke="none" stroke-width="0" fill="#ced4da"></path><path d="M1.4480560924857855 -0.8843596186488867 C21.795412081632072 -0.931010953550793, 46.864072010597695 0.5552701433844792, 73.13267056011937 -1.64750119112432 M0.23483522702008486 -0.26875651348382235 C27.53378889931512 0.09637271436705436, 52.38909804798955 0.9317009654904826, 70.59110162427059 0.2783964527770877 M69.93570486569187 1.6214630994945765 C72.01404380501354 37.06761923749269, 68.76393729151333 77.1402802735621, 72.59389362597248 108.29512550330661 M71.42133114506832 0.28759487997740507 C71.65907746999098 32.76818813716432, 71.62739196865392 66.92452735840153, 71.79340720941654 110.01531193147353 M71.68051252627156 110.47606183982394 C55.28914615518798 109.4366316612617, 37.713688216111244 107.64895264467158, 1.788288762792945 107.73088367677234 M72.18435908128849 109.65311906228713 C51.144491182688235 109.70983388942884, 31.212309326873623 108.65641587895558, 0.5476171271875501 109.270361368758 M-1.1476600859314203 110.54400690293811 C-0.18315749724787533 77.83719294608474, -0.8432028230039483 50.523607520115156, -0.8716315124183893 1.4752640519291162 M-0.25778872799128294 109.52432603130988 C1.9436589430623554 74.58607780863846, 1.1119074474626087 37.76345592111109, 0.634011228568852 0.3560142470523715" stroke="#000000" stroke-width="1" fill="none"></path></g><g transform="translate(18.178052359786307 244.06012531073287) rotate(0 28.14266727402446 41.77575289154956)"><path d="M-0.1954075787216425 -0.5192324724048376 L56.41465909413274 -1.3748359885066748 L55.577333342351274 83.62530555156188 L-1.6113765332847834 84.79486759332137" stroke="none" stroke-width="0" fill="#fff"></path><path d="M-0.8843596186488867 -0.9231518004089594 C19.336513698631492 1.0194226384661171, 41.61986603507691 1.2942528009912941, 54.63783335692461 1.4700032379478216 M-0.26875651348382235 0.8543376224115491 C12.46958404359818 -1.101982298982517, 26.0431249104336 -0.9719723199728888, 56.56373100082602 0.475172002799809 M57.906797647543506 1.6452757027000189 C55.708495549271746 15.337301958672956, 57.81698238045995 35.04726301384023, 55.33644515282686 83.71150901866274 M56.572929428026335 0.4924513893201947 C56.121826503978646 23.50503940674385, 56.63099146317092 46.4510580958594, 57.05663158099379 82.8305830643432 M57.517381489344196 83.6894090468915 C38.217614796854576 82.46385307342977, 17.633769506342496 85.41004325182409, -1.513131221756339 83.1943003828557 M56.694438711807386 83.4185945675628 C35.87660878645435 84.06399559556641, 14.171750166948478 84.52321204125084, 0.02634647022932768 83.32197022297548 M1.2999920044094324 83.46555063081102 C-0.32396117019576476 56.99663505931868, 2.6281192584045465 31.06213377920816, 1.4752640519291162 0.47105067037045956 M0.28031113278120756 84.4501962647693 C0.1843501887629061 66.54507283158702, -1.2920939066102477 50.0387731365029, 0.3560142470523715 -0.8362805349752307" stroke="#000000" stroke-width="1" fill="none"></path></g><g transform="translate(40.557229622051636 331.1872833130586) rotate(0 5.76349001175879 5.763490011758819)"><path d="M6.044501763529961 -0.22390649753862757 C7.369709115737739 -0.49986421566689704, 8.938672806116692 -0.4430560669368234, 9.748633884588445 0.538335065413837 C10.558594963060198 1.5197261977644976, 10.76576827374409 4.372097967353336, 10.904268234360476 5.664440296565335 C11.042768194976862 6.9567826257773335, 11.210263835015638 7.208683710335897, 10.579633648286762 8.29238904068583 C9.949003461557886 9.376094371035762, 8.36391559826356 11.577963647599177, 7.120487113987215 12.166672278664928 C5.877058629710871 12.755380909730679, 4.1582724528381965 12.608198105308627, 3.1190627426286976 11.82464082708034 C2.079853032419199 11.041083548852054, 1.2816700171928723 8.726924933975516, 0.885228852730223 7.465328609295208 C0.48878768826757363 6.203732284614898, 0.4649864993255793 5.151333076969316, 0.7404157558528013 4.255062878998486 C1.0158450123800233 3.3587926810276563, 1.394519951818436 2.7664665983940218, 2.537804391893555 2.0877074214702276 C3.681088831968674 1.4089482445464334, 6.864907929299866 0.34622810695533757, 7.600122396303515 0.1825078174557202 C8.335336863307164 0.018787527956102806, 7.0236021311554 1.1617902516405783, 6.949091193915448 1.1053856844725232 M4.450917589786238 -0.524124965495365 C5.693208688047693 -0.8724976887156997, 7.9926237525393695 -0.6606535324433847, 9.303520329818536 -0.03577424558012332 C10.614416907097702 0.589105041283138, 11.884258552738075 2.057770876876884, 12.316297053461234 3.225150755684203 C12.748335554184393 4.392530634491521, 12.608836948677398 5.765129858746, 11.895751334157497 6.96850502726379 C11.182665719637596 8.17188019578158, 9.564555782359678 9.76699519840787, 8.03778336634183 10.445401766790942 C6.511010950323983 11.123808335174015, 3.848150123945331 11.432334579077338, 2.735116838050412 11.038944437562225 C1.6220835521554926 10.645554296047113, 1.7628342166935773 9.150046825990813, 1.359583650972315 8.085060917700261 C0.9563330852510525 7.020075009409709, 0.4808222706402453 5.790210728175146, 0.31561344372283706 4.649028987818911 C0.15040461680542885 3.507847247462675, -0.7403939556520516 2.0638906553074845, 0.36833068946786574 1.2379704755628484 C1.477055334587783 0.4120502958182123, 6.212762257766936 -0.36811086406331867, 6.967961314442341 -0.3064920906489066 C7.723160371117746 -0.2448733172344945, 5.140337772447705 1.2111930659609145, 4.899525029520297 1.607683116049321" stroke="none" stroke-width="0" fill="#fff"></path><path d="M4.556353118891152 -0.4437867451787749 C5.629479308552912 -1.056382055155675, 7.442331304989585 -1.0003389207403515, 8.382417620079105 -0.420253189137207 C9.322503935168625 0.15983254246593748, 9.729604618665078 1.712137185430646, 10.196871009428271 3.036727644440092 C10.664137400191464 4.361318103449538, 11.340486818451096 6.5086342361866105, 11.186015964658258 7.527289564919469 C11.031545110865421 8.545944893652328, 10.063910987585547 8.622134379430562, 9.270045886671248 9.148659616837245 C8.476180785756949 9.675184854243927, 7.566394991027551 10.425763217968283, 6.422825359172458 10.686440989359564 C5.279255727317364 10.947118760750845, 3.623744534575197 11.287455421699436, 2.408628095540687 10.712726245184932 C1.1935116565061776 10.137997068670428, -0.4629173478613077 8.39467469589733, -0.8678732750345999 7.238065930272538 C-1.272829202207892 6.0814571646477456, -0.9921543069844533 5.015026661187639, -0.02110746749906589 3.7730736514361802 C0.9499393719863215 2.531120641684722, 4.321971032920392 0.274796018205496, 4.958407761877725 -0.2136521282362125 C5.594844490835057 -0.702100274677921, 3.8105740902082528 0.7545982308337131, 3.79751290624493 0.8423847727859295 M5.979625289210477 0.43600268366957984 C7.33837437072875 -0.024438115209849454, 9.349392670918396 -0.48501509221173356, 10.380463636992689 0.18160455084115323 C11.41153460306698 0.84822419389404, 12.03290314539078 2.7994080782238884, 12.166051085656228 4.435720541986901 C12.299199025921677 6.072033005749913, 12.134497159096943 8.778255944157628, 11.179351278585386 9.999479333419227 C10.22420539807383 11.220702722680826, 7.88972629559017 11.549065891999078, 6.435175802586889 11.7630608775565 C4.9806253095836075 11.977055863113922, 3.260419662339573 11.81950050378729, 2.4520483205656984 11.283449246763759 C1.6436769787918237 10.747397989740227, 1.880546056439757 9.815984250089068, 1.5849477519436403 8.54675333541531 C1.2893494474475238 7.277522420741554, 0.7019682496256698 4.668356422709983, 0.678458493588999 3.6680637587212184 C0.6549487375523282 2.667771094732454, 0.7471115676703529 3.2002235923494395, 1.4438892157236154 2.5449973514827233 C2.140666863776878 1.889771110616007, 3.934279787767486 0.06282397044009036, 4.859124381908574 -0.2632936864790789 C5.783968976049661 -0.5894113433982482, 6.619291025072566 0.3453833665300793, 6.992956780570141 0.5882914099677077" stroke="#000000" stroke-width="1" fill="none"></path></g><g transform="translate(26.52958330632441 254.69577067088431) rotate(0 19.7911363274859 10.031017864850071)"><path d="M0 0 C0 0, 0 0, 0 0 M0 0 C0 0, 0 0, 0 0 M-0.00155988630371795 6.282866520484083 C1.8499226897587104 3.341626071062539, 3.320080004412581 2.0448719106927333, 4.304210648270792 0.691557118653994 M-0.5728394534112761 6.046882671539776 C0.9655696657501902 4.974054850807472, 2.2543728938282763 3.826611891309756, 4.735628608571834 0.06791881023321689 M-0.5685622370709075 11.912432943701326 C1.787963296829326 8.612585780356342, 5.896322924581695 6.735704358439508, 9.971038219285143 1.2844940106466178 M-0.30460346032868757 12.666545067399323 C1.507360352301476 9.80474230312344, 3.6984440004999852 7.361623707486464, 10.696532950502766 -0.7593353834852814 M-1.276682802527235 17.40475608864861 C5.757595881389591 14.250077144478674, 8.172673132935035 6.345918895744699, 16.5801383717949 -1.1026897517102787 M0.6040852143848081 17.957700449880832 C3.948829708108509 15.214626225587857, 7.776948911268452 9.423993396446233, 16.024170669264574 -0.21965859300224277 M2.8137247800265754 23.128919906838874 C5.894380919928868 17.051200179759896, 12.250287107005654 11.386307112255068, 21.619826466122532 0.44056799581046135 M2.1589866974761094 22.26693711329166 C9.315388126702985 14.777465354452342, 15.690430109401214 6.7646857832265646, 21.345904276983703 -0.05742392463837831 M8.217724328762142 23.730491360558947 C12.455518979777871 14.55218594574081, 18.49120200858961 8.352745794516599, 27.329102885585637 1.061966338568622 M7.625633261068014 22.902562697327514 C14.54557769612003 13.46902754197015, 21.622938877169215 5.380937989619447, 25.587875662047775 0.28265894241749656 M14.16739510436419 23.0477569053209 C16.345683215036196 17.563454935760877, 22.051807516657256 10.891454465838327, 32.308232660821474 -0.605396794037592 M12.140309488110873 21.597974741484837 C18.729633223628312 15.012691376984293, 23.79770448377249 7.974509795823055, 30.982094239859677 -0.6331150409520383 M19.62314102150796 21.498277791414022 C25.081015774947506 13.825945782628814, 29.484380394368266 8.126126801841567, 38.668010331505286 0.36189922328111734 M17.44360117804555 22.930494017537296 C24.593534449353427 13.723025058069922, 33.54367549943122 4.144544157562823, 37.05332549736028 -0.08972979047331009 M21.80436773583071 22.252261323236517 C27.557212545166387 16.93994303969837, 31.793488510327965 12.563189979505232, 42.52861412029331 1.086840230368491 M23.067322433774933 22.338485788867466 C27.746421830995764 18.38517543850517, 31.50876562079788 14.01289562270176, 40.77419516697144 1.5295444301817973 M29.45241803870734 23.627785920184436 C31.00759530038353 18.576493636564894, 36.22138963903871 14.255851890195862, 41.31429124069484 9.287257420183677 M29.263636905552932 21.473707423797208 C34.06129217537769 16.253475935723074, 37.797110314342994 10.754239482829258, 40.556032869779415 7.09743496156815 M33.44948509790614 21.8110569638623 C36.45291955738445 19.73713171427518, 37.762285514046106 18.729615871050207, 41.44718694363335 14.295774270873514 M33.87906627639808 22.02412394806315 C35.251765374176976 20.296590485616683, 37.68654351483398 17.348181989318196, 41.420909341681615 13.049650458758695 M-0.12217214564124745 19.95583310376368 C-0.12217214564124745 19.95583310376368, -0.12217214564124745 19.95583310376368, -0.12217214564124745 19.95583310376368 M-0.12217214564124745 19.95583310376368 C-0.12217214564124745 19.95583310376368, -0.12217214564124745 19.95583310376368, -0.12217214564124745 19.95583310376368 M5.483250198466969 20.126974105313217 C4.929192681230273 18.364736834617798, 2.634161779140963 17.170679919778877, -0.03579467508858347 14.552585940733827 M6.126657871483159 20.458758269846236 C4.936483598903601 18.805661687378837, 3.6650824416629204 18.037667591982895, 0.49236428205007393 14.913605980873383 M12.003060528957029 19.050693649207087 C8.2993185234525 16.211660492307956, 5.788197088820083 14.908183849837151, -0.7872920965720462 10.02051320627877 M11.424911699765106 20.028559725885124 C7.4360342995276225 15.439259283276535, 3.314523632398404 11.248397188133819, 0.009201565576667847 9.566078786855428 M19.851535538581977 19.21705180902949 C14.18568973902556 15.234923078140707, 7.543030236157307 14.151802016704586, 0.3317349666633369 5.245754430788898 M19.193801547771166 19.739581380346625 C13.319673801262237 15.884105087540483, 8.358131341047562 11.17288998947171, -0.7759231057114242 3.4829428286956183 M24.122789444821837 21.74352846713253 C15.979525841441145 15.191143619265722, 6.91680702862449 7.819971740168825, -0.6200114840889398 -0.2372980430565309 M25.339159149165216 21.12552682635822 C18.814154889820436 15.302168784855208, 13.036601775711103 9.531571154101043, -0.31265609415863194 0.1147292828344274 M29.318618820277404 20.382567540947214 C24.73740150958051 15.892535109725388, 19.306924751568204 9.72368431248946, 8.185792135285686 1.5383813433179974 M30.413464816515695 19.6936519595048 C22.849345949606555 13.2444372972253, 16.38991028099435 7.7618498725550324, 7.41170960965241 -0.1992135005240918 M36.88112104805047 18.756772928298307 C29.210518476891313 12.960750214164644, 19.7904086023919 5.187470986316697, 11.664828450438517 0.8596065438416662 M36.49251344269002 20.2790545740955 C31.97689288126701 14.66568749091159, 26.241163392013007 11.139777087996604, 12.64284320363863 -1.3902417334663806 M38.98390165490619 16.698878728067523 C35.29492911698973 13.429071305707975, 28.77500958999269 8.340384930362198, 19.356851094471345 -0.6861747936607578 M41.478334626718976 19.472861102996415 C33.04423745107666 11.506246930421028, 23.990913528898265 3.4907757441719376, 19.251461455667446 0.05057050331670254 M43.132250953055284 13.937721472117602 C36.53758511444203 9.847135517674179, 29.220804206091366 3.025569666002486, 22.66754100459488 0.38573323767345613 M41.3556193155789 14.151948849554657 C37.474089070221396 9.727928752340969, 32.66156658363084 6.753405919619398, 24.63143500021519 -0.48720417432773644 M40.132909169778564 8.710460615699253 C38.02973261882994 5.301420527310261, 34.319185671765666 3.81970044291453, 31.31971103662775 0.514518050162039 M40.57804591640305 8.206356926198191 C37.41817206942909 4.696884006956496, 34.62578144467804 2.463154476518363, 31.63660678218269 -1.0109482673817203 M41.579974404320204 2.4662689643228215 C39.984218410884885 2.123859752552412, 38.09458210051681 0.09622879549352237, 37.42504929795369 -0.27310093117235457 M41.287201638350346 3.032082833327891 C40.053612375575995 1.9601533312206783, 38.73642107597222 0.5420699629598666, 37.609278534282666 -0.34363409525072436" stroke="#fab005" stroke-width="0.5" fill="none"></path><path d="M-1.4605575408786535 1.4269442465156317 C14.766272906171414 1.8844766403693862, 27.83359750910527 1.6527054692763992, 38.10857163426903 -1.0219703409820795 M-0.26862857211381197 -0.9698045058175921 C13.370912673991263 -1.1779607739049063, 25.88682244274038 0.13700575570286655, 38.61001980455098 0.38265733886510134 M38.68571768758324 -1.6048308108001947 C40.956853771953696 5.681779144295782, 38.79603251293194 9.197566574367345, 39.098456547236715 21.77469925169035 M38.70328653009114 0.46076588798314333 C39.27014887686127 6.361932428014826, 40.411267075494465 11.277920020597778, 39.92171558888135 19.311898479761027 M40.31071917769936 18.904134314098798 C26.154339193515966 21.877617115430322, 13.331739498028856 19.732122952393976, 1.3381248507648706 20.68670700077101 M39.82498750240979 20.150436411203287 C23.914510181546653 20.557043577165107, 9.894500504421309 19.779890889853935, 0.08897727262228727 19.083962480129145 M-1.1411560978740454 19.316035251656018 C1.680521900522333 14.323013380847076, 1.3448616217251834 10.79830472720122, -1.9130905475467443 1.2061793711036444 M0.6882407022640109 20.128974715770624 C-0.8444395127220359 15.19461290652648, 0.2997781274394784 8.222887091239853, -0.09770378936082125 -0.2596162362024188" stroke="#000000" stroke-width="1" fill="none"></path></g><g transform="translate(26.52958330632441 290.5620554061315) rotate(0 19.7911363274859 10.031017864850071)"><path d="M0 0 C0 0, 0 0, 0 0 M0 0 C0 0, 0 0, 0 0 M-0.3763743206532547 6.415306033988587 C0.6629047645744434 3.957542333258355, 3.3545091003472844 2.0649411306439323, 5.318465151222891 -0.22933088058258955 M-0.6123581695975611 6.438933643375628 C1.2741986526685354 4.749870413580536, 3.0847707787748555 2.5254779845019093, 4.694826842802113 0.12588334007535515 M0.0047198706399309565 11.213054253577768 C3.2233652578238985 8.692399387447729, 7.861397020941403 3.146590012303722, 11.94907868499769 -1.5241855789825558 M0.7588319943379271 11.359377279549419 C4.559358241879733 6.652913217695341, 8.772557766509136 2.5982848689546034, 9.905249290865791 -0.012869719873392471 M-1.162197825550125 19.70907975072103 C7.202244732642927 10.507298804254331, 10.81474547713352 5.6099253748629465, 14.188802955209692 -1.2545837362366745 M-0.609253464317904 18.88634079126703 C4.061334346601782 15.184252231326326, 5.694412939236087 10.859776392600079, 15.071834113917728 -0.45752174063353035 M3.5457995883559192 21.11199277259324 C6.725349941532467 18.106713308180403, 10.335641098152786 11.945457169905273, 21.769737344512606 0.7885787630617145 M2.683816794808706 22.340565455070774 C8.081221840857443 15.984858415067507, 12.981235200533849 9.474465956146707, 21.271745424063766 0.22058677712227137 M8.774279074644891 21.184629866762837 C12.754786920525211 13.985395866574539, 19.737094192382695 9.401846921962202, 27.018043719839664 1.9249766146776022 M7.946350411413459 22.240127022287627 C12.57954103740643 15.409472236398305, 18.555873214131708 8.303196552475713, 26.23873632368854 -0.022342996298080564 M14.129221261189016 20.35817299655439 C22.01558006800673 12.210190960813783, 28.7157354683356 4.839445302517678, 31.388357229015625 0.08763450582169341 M12.679439097352954 21.923342466007785 C20.014539466329854 13.026752491362254, 26.89087140905857 4.586846793665938, 31.36063898210118 0.1001376985817437 M17.206650179851035 23.068860170069694 C20.467852756212928 16.729245057914007, 25.673491848567842 14.80673186011177, 36.98256127890323 2.050681069595786 M18.63886640597431 21.578311366598665 C24.58543560269745 15.550477789464523, 30.178628035012505 7.114422957624058, 36.530932265148806 -0.533441870370833 M23.998310353455707 22.056356699519448 C29.87705759882155 14.816773164696802, 36.70657262985324 7.7967266953654395, 40.92364170934623 -0.5364085963438789 M24.084534819086656 22.197537171036593 C28.076131838171825 18.083093537290686, 31.63557348627036 12.733953920023357, 41.366345909159534 1.2380205917660554 M30.000742982972525 21.021170545015814 C32.4492076608741 18.6986047073516, 35.62883019355296 14.613635035252845, 42.46481805802407 9.367256719344812 M27.846664486585297 22.79807143711518 C30.9675423834801 18.36473363720604, 33.826254630906725 15.058127297566164, 40.27499559940854 7.147356889262381 M34.22169066843256 22.34615184473377 C36.22506029445585 19.552069238107997, 39.298885228664695 16.953896724153093, 42.224862676789854 12.681089468393472 M34.43475765263341 21.202546203970357 C37.21861541837092 19.026807269923943, 38.77979061789479 15.91091450399705, 40.97873886467503 13.438554873922836 M-0.12217214564124745 19.95583310376368 C-0.12217214564124745 19.95583310376368, -0.12217214564124745 19.95583310376368, -0.12217214564124745 19.95583310376368 M-0.12217214564124745 19.95583310376368 C-0.12217214564124745 19.95583310376368, -0.12217214564124745 19.95583310376368, -0.12217214564124745 19.95583310376368 M6.18529604892273 20.582221455350314 C3.978819791107761 18.289252701121747, 2.376813260496048 16.598409833493196, -0.17829652551478042 14.245764017775931 M6.517080213455749 20.135627628713642 C4.228964679540191 18.614223666566264, 2.8435003950282414 17.46298186328793, 0.18272351462477537 14.64412159428028 M11.146692234598776 18.896756681953402 C6.575803167499614 15.374962731884532, 3.3596250030207724 11.879547865756404, 0.5381029719542219 10.565866037761657 M12.124558311276813 19.870144007508486 C8.170726667291209 17.36785957698198, 4.646988095909892 14.184462968825274, 0.08366855253088001 8.96200605363199 M17.449377587435613 20.65059202288261 C10.719522076334753 13.16502258385718, 7.210927915391167 9.166873597024878, 1.1104669796206714 3.418751894283437 M17.97190715875275 19.675529072368352 C12.682523676616736 14.875507507922293, 6.68112935763372 10.067448814495572, -0.6523446224726079 4.739907249595367 M26.112181438553097 19.684457868798457 C20.989162159756475 13.871275110438685, 15.1294851793301 9.30435856983581, 0.9745372889315661 -1.7734755702159832 M25.494179797778788 20.12725605209806 C20.23359248120574 16.136498469115693, 14.690266205634357 11.119054252112424, 1.3265646148225243 -1.0624274877674411 M30.78889715414996 20.188021903131023 C26.99017244711535 16.513839651469567, 21.280976994958657 12.709801920892602, 8.886543868320535 -0.47471333147786865 M30.099981572707545 19.54399009628208 C20.4408024928225 12.062535941644393, 11.82344967650312 4.512218335401602, 7.148949024478446 0.08457956703550806 M35.29942973451549 20.935377281517578 C31.064891915075435 14.777873234918054, 24.670802702782616 9.015471621395285, 14.245445710626381 -2.1646269277605352 M36.821711380312685 20.992701557823313 C28.876317680479858 14.635250933983393, 23.141136788927287 7.920957572766593, 11.995597433318334 -0.5908208644884763 M39.081911073602356 19.711528610652334 C37.1184926746855 16.093859500037208, 33.64542588245044 10.907036553480726, 18.835991566138397 0.9035330465732834 M41.85589344853125 18.614748803181595 C36.54481360845599 13.80867633241813, 30.983367260681767 10.8729527990531, 19.572736863115857 0.33576344556349724 M41.66787660080876 15.12336418021053 C38.90799282884711 10.89472463914131, 33.65960001807175 4.757085436473743, 25.94557623925479 -1.5754544938011819 M41.882103978245816 14.09310044429779 C36.990276215817005 10.233450270171613, 33.84564251685782 6.528038544131623, 25.0726388272536 -1.1372692033677154 M41.68908797631447 7.817630910110734 C37.16048992932831 3.802438881333699, 34.62503025414222 2.147699422635311, 32.21068824475781 -0.324668303633191 M41.1849842868134 7.628435004345215 C37.51166769756899 5.450612387397509, 35.135878533052626 3.357525996915243, 30.68522192721405 -0.2092824584693539 M40.79201910809436 3.0761648465195464 C40.25695024116069 1.3401319063351633, 37.98365056497534 0.37299553794769125, 37.55939645643785 -0.20141374224154507 M41.35783297709943 2.97743559021184 C40.62122327409819 2.223548159484152, 39.47994089573067 1.6213951483461813, 37.48886329235948 -0.40777696922710405" stroke="#fab005" stroke-width="0.5" fill="none"></path><path d="M1.4269442465156317 0.02572355605661869 C11.826208028011983 -1.3584402570676506, 21.71887047589017 -1.1846400866460502, 38.56030231398967 0.4696704540401697 M-0.9698045058175921 0.5666996790096164 C9.971087910231937 0.38472574662033415, 22.09693687687961 -0.8659235565775265, 39.964929993836854 -0.7475956426933408 M37.97744184417156 1.2119318637996912 C40.91030802952956 6.696213855510512, 39.90731379019927 14.806390393730123, 41.29493617696193 20.0429057176797 M40.043038542954896 -0.3698211656883359 C40.04357948698656 7.366881627633463, 38.96014570989267 13.530612123286804, 38.83213540503261 20.18684391729667 M38.42437123937038 19.00280323583766 C27.05751872356951 18.693072352329683, 10.598981866337976 21.544328424850892, 0.624671271070838 21.56896159012004 M39.67067333647487 19.251332566664956 C26.635880730250634 20.184454252616522, 12.364718991030788 20.24708505500948, -0.9780732495710254 19.48820568673446 M-0.7460004780441523 21.872960060426436 C-0.863009335736613 14.214664760679906, 0.4796728470522359 3.503675140254666, 1.2061793711036444 -0.5155774559825659 M0.06693898607045412 19.273832336591028 C0.4537156230367617 13.837078061713559, -1.016576140507321 6.802388110261385, -0.2596162362024188 0.06466227304190397" stroke="#000000" stroke-width="1" fill="none"></path></g><g><g transform="translate(648.9194522402216 115.7407287800122) rotate(0 40.292905247690555 25.87905241363326)" fill-rule="evenodd"><path d="M0 0 C0 0, 0 0, 0 0 M0 0 C0 0, 0 0, 0 0 M0.9920263360021166 6.703305464419014 C2.0391087933337735 2.9418869261141687, 2.545528440047746 1.4397549537011907, 5.859710817555434 0.24022865759555634 M-0.17368010545619805 5.6876698301121955 C1.5362101724507422 3.624818814422228, 3.266433403988978 2.312938817562773, 5.666388510032093 0.7791221984510535 M3.2330451347957956 8.901880321323453 C2.5512020206774473 6.698214370992512, 8.277369173545921 4.382812925738042, 13.025083802592885 -0.8811541412875292 M0.19170916910279856 13.373480354666292 C4.228094797749886 6.869334707209819, 6.72626987319683 3.2642560438220896, 10.095791742158067 0.8617966095998648 M2.532618458741263 18.805840799251563 C9.630656630386788 14.942765124429716, 11.008243879661766 2.9866837618830946, 15.775248635097821 2.064830143649595 M2.082208388843492 17.061356763953334 C5.291966207208189 12.654041264249646, 11.951960172488263 6.320077442380224, 14.20042620739289 -0.18857760104118082 M-1.5470729281940248 27.203040333180784 C3.348504119970478 20.52353810455596, 9.446979720207896 7.656209744309871, 24.09823838090327 3.862106376716447 M-1.3520203063078906 22.588151398762225 C5.941860548522655 19.676558870947254, 12.199079183805438 13.227720489323552, 19.91680154232111 1.7244711773633483 M-1.5362455998595106 27.649046674826685 C10.759123840456942 19.12631799279235, 18.69192781445821 13.18772801093331, 25.300092651185007 2.7089415857580246 M0.6621321863447083 29.54316453867549 C8.677901151473206 22.45265045905769, 15.107444768537768 12.950279849030261, 27.70846588597855 1.293358304911548 M-1.1963584345487064 37.52254167994731 C9.743781759593043 26.90064436497027, 12.695675135831543 20.738109507752775, 28.75530743361155 0.14096055564128207 M0.7061635314765269 34.160363683982425 C7.39902046053985 26.52514213731095, 19.326870584505812 13.662489667345998, 32.306543644002474 1.8640723360016231 M1.3465116423784238 38.06377139274131 C11.945735005626759 26.505199847270397, 24.796137213495385 13.29770198855077, 34.132111349889385 -0.017842357875732517 M0.9637502216963512 37.78723364841293 C13.939625587185455 28.183273035019205, 21.8991452942415 17.0141002314754, 35.89018873106812 0.1354245209228715 M7.979725194647354 43.574899329412254 C20.196500788203693 30.144551772795644, 34.96571640413008 10.434498239020208, 45.515937887687016 -0.5677798699260705 M5.2863031136984056 41.397629842701825 C15.290741226139318 35.59897072202041, 21.17495899046762 25.01464080101839, 41.897556802812744 0.5588721640734917 M5.351788622955073 49.488491515495426 C22.075516227845625 31.19093280694845, 37.29554995407616 10.303404831254262, 47.03595316871095 -3.7707951247516824 M7.628175776148428 48.97276331191564 C22.227435190400204 31.367374529191217, 32.89769444582764 14.297112192017497, 48.339833023911595 -0.1863047342572166 M10.403413193960603 48.737806905635004 C26.34383817749405 32.69834611259089, 42.31683493875103 18.785935730860274, 56.98852818062967 3.7368616625143893 M11.26522351867419 49.18399115522981 C26.477475111292424 29.0580412627451, 44.60195315616757 11.163968241545575, 53.61220430000192 1.206819880328954 M10.650101837351443 50.1647644451435 C24.05529779607376 34.01937581245454, 41.018238955955304 25.365231164808886, 55.463766545149696 2.1073098476301872 M12.764890188931943 49.11328358748809 C29.048438191605253 35.480194224833895, 44.04634968360185 18.42268365606369, 57.807887045758974 -0.8520052418787039 M17.057149145843567 55.64494307000171 C28.509293154958584 39.18339921229063, 42.340932177016846 22.933073568824295, 61.156858691958504 2.877780875908204 M16.54870817260641 52.690723939202535 C34.24321145605788 32.587245619135565, 52.75208109638996 16.33523848172993, 63.21698135883899 3.0590338639635526 M22.819172636096013 50.420195484853835 C32.173779299570825 33.40644933412593, 53.13344629423949 24.811983939522708, 63.58702282973411 2.850327862438178 M21.35932965432538 54.33962243454859 C35.83681933652085 35.562357966809046, 49.22760540544241 21.212264479955124, 68.23291199088874 0.566025957476711 M25.01846342981525 52.525453545457914 C34.252924435783484 38.311959530699994, 48.04281354886862 26.506052450963146, 70.66038688816401 6.726244752532608 M27.606377298764066 53.71582157381554 C42.745092516687784 36.33216992013803, 55.20661448160311 21.956388418530807, 70.60281028956446 3.4462537535045215 M30.748458485679294 55.876051616903666 C45.616247467273936 35.36443963469986, 64.35709773427251 19.9261390657907, 74.85710657592622 2.7216471612812185 M35.17741648256924 54.10751949162436 C47.83476466481439 38.301049851733836, 62.76244023714278 21.859680344922445, 75.30213225651292 4.556274761667957 M42.70844545438513 51.16627447472638 C54.119186696581714 41.50358536945207, 65.25252102856913 25.423941254421095, 82.82607023573671 3.466020274664821 M38.72016014940664 52.646317858041584 C49.99149817080758 35.98295202827768, 65.403025807141 21.74603920609539, 79.81686340241883 6.0429691874790805 M46.046739765620266 52.730228564238544 C57.285936522756586 38.10371969627193, 65.75059261315525 24.067846628423222, 84.85231204728298 9.844251787995923 M46.17314589693252 50.48059313791096 C59.746382019633785 34.978143343344826, 74.29019836128393 18.46895727739159, 81.29843194993846 8.498072870781648 M51.9235665700817 53.17626116097543 C58.749359399833395 40.702335632127195, 75.78974782166938 21.7572826017769, 86.41989396924305 9.631051066364243 M48.01611791881262 52.722415751298996 C60.8126482891338 42.23572084147687, 71.77406961225311 28.680385999879014, 83.81409077571857 12.90509644619663 M53.01029685543792 49.49312204980401 C65.43367848725626 40.90743407670857, 75.10348803152057 28.578191646782763, 87.11872865231388 20.880077885305077 M56.456763120684194 53.866211752603924 C61.942104042660446 43.58950957438522, 67.67220733618674 38.57222256536453, 82.94124032342486 17.34095408379057 M64.42809327238595 48.703221006259525 C64.79107941866215 43.43848307695347, 77.14152995414752 39.55282464442894, 84.14381555517352 22.030104109908123 M60.056856946213 52.754520311892236 C67.5873719179717 44.06483889563751, 79.44279007494289 32.55013605012888, 84.95416471970415 26.39462516818442 M65.21532333758479 51.704660734986184 C75.41777436444202 48.042505709419714, 73.0374063360567 44.20401097442722, 81.88994579952842 36.80356159593144 M68.8871765800268 47.732526653339384 C72.66818819833225 45.579617148110806, 74.3326133323511 42.35253687162701, 82.10623662923163 33.378202199667484 M6.6064781494584075 47.27322737527644 C6.6064781494584075 47.27322737527644, 6.6064781494584075 47.27322737527644, 6.6064781494584075 47.27322737527644 M6.6064781494584075 47.27322737527644 C6.6064781494584075 47.27322737527644, 6.6064781494584075 47.27322737527644, 6.6064781494584075 47.27322737527644 M13.145679089709581 50.150631175582106 C10.156699598395852 48.13306799113669, 5.816577382706871 43.796165911172324, -1.0097328030225334 40.864915192520314 M16.69971099635905 50.82479705216437 C10.857504971470757 48.34206336586901, 10.103055276438193 43.81406474535221, 2.7285644191596212 36.21012714730769 M18.64433182989979 46.376309355670436 C18.871855868480267 44.243299029905096, 16.463542119082298 39.61294164206994, 2.4399425911844475 28.415740747067673 M21.24875654307926 48.56163924182378 C17.47995075674314 44.027319347200596, 11.991204855076154 40.60967274800827, 3.095452001610468 30.51049142150913 M26.254690350119304 48.751695329948234 C19.505438589915713 41.736616824896956, 11.014129526512875 33.17198271808729, -0.16854694761454603 28.21717307462648 M27.567907451737952 51.054407563685345 C18.83573076265778 41.211154406848365, 7.070131122378754 33.1168759823187, 2.7995737446832702 26.371110982515965 M37.39149841027839 46.442735822718475 C26.64922423078849 38.549677224340726, 12.20508933594478 34.56831337214021, 1.3459706707135304 19.766999178490252 M33.37580152521414 48.7383968865833 C23.97262385342748 39.71155424792041, 13.551522329023289 29.624376784227568, 1.089667656479822 19.76419910315296 M37.74833977961899 50.29173172131267 C28.9630935720973 45.806757373783924, 20.48508218034869 35.34521419077846, 0.5637979654106307 17.708301195990465 M38.38671345071853 49.22720936738041 C29.286781191614722 38.01902311393627, 18.524547587660972 31.313914552535397, -0.4821009507891727 15.121717315282845 M46.70089571805139 49.87869225003382 C32.04314071207608 37.68960089002141, 14.423744146148735 22.840717801188404, -3.377665053612972 9.546869601430135 M43.40131228113015 47.68660862491092 C29.540276317607653 32.22349162566398, 9.694941326866946 19.552967323977605, -0.21467239924469084 10.365288612739878 M51.91781623548586 48.67815788318493 C32.7313129249345 31.227458781857926, 18.829132392729633 18.229208682046323, -3.1730496264470056 2.808026119112265 M52.60503269432802 49.30384265300908 C34.09555194575166 32.48776989530936, 21.40514459352047 18.521940622708772, 0.04027861399229016 5.375520364358318 M59.97159135116435 47.216023258097486 C36.10321905414949 34.90025201187986, 21.393593747439084 13.192990773267493, -0.7381469838495143 -3.8065533636316604 M57.866446252522834 49.75696673353763 C38.10836789714395 33.06770359935537, 20.33066686462645 17.946171126633963, 1.1767142761324756 0.4613272270008973 M60.98709899477438 51.47483232008398 C47.52762685342685 30.422591273176863, 28.311711232247575 18.616795547167342, 8.985735356094722 -1.452953361584067 M63.07330930337087 46.93263858134032 C45.74751827514587 33.13744916155466, 32.186829999912945 19.462470970412937, 8.717377362059835 0.6383165804164412 M64.00718584600342 48.706660264456936 C51.0263565812719 31.891225452879098, 41.85449203623141 19.575080043625437, 14.756067020845483 -3.0139077193375288 M65.18564381952835 46.05150028626091 C48.92298445485325 30.809539616290998, 27.446426764642545 15.250741182036776, 13.2255846672029 -0.9276004004563747 M66.62237691476176 45.214172565519334 C56.05282943807976 33.14966034983654, 52.66640682741358 21.585208712885684, 18.05480135053581 3.0200893164014726 M71.5529469788743 44.76173734213364 C56.125349962172585 28.442045581079157, 37.70898994042197 14.396778064944552, 17.01843357466346 0.5111801822072177 M75.09116596095969 42.8195659475742 C61.58123513402012 31.310005292685524, 38.52423950935671 11.927166305716053, 21.88802211440767 -0.8211613670355842 M73.72198158428778 42.920519617792785 C55.51752407683266 26.461506487318243, 35.27886657146109 12.19649875080372, 22.65394877165223 -0.7754895147300527 M77.44146759339357 40.709273239971985 C68.05659409996984 27.99277757569969, 53.809929841900214 19.06997683169835, 33.698620152594096 1.3859084836448226 M76.22572816253388 39.751206212120046 C63.56529231918384 28.732268739047747, 50.39034255670923 16.983618584760872, 29.531258891271 -1.3095368434434143 M81.40213223241926 36.43167172499673 C68.75955304467224 29.067154862162162, 56.86089491737381 11.719316518283481, 36.20361673433704 2.8351622557741756 M80.20239992693723 36.15355380193071 C70.9373080539931 29.44461817454021, 62.64685838107887 21.41432686545862, 36.41541987073047 -1.2156408970701342 M82.2214311472787 31.149374789979916 C68.61920585662207 25.48839636238398, 53.31055746125712 13.839427447191078, 46.30684019976956 -3.635769297354013 M82.9014278147085 31.26850829408751 C69.83533051177483 21.12616616078173, 53.29879480816736 11.903818746926813, 42.03759159313244 -0.5352602777854507 M82.33444267810493 28.668763188215046 C72.97268298014023 20.196178398840743, 71.55451660988612 16.51851368048012, 46.69095889835637 -1.012901259417749 M83.0383467089495 26.8202360864152 C73.548206419891 23.15169097584547, 68.38888202252708 13.905278206936504, 48.37457082591038 0.6184537002638812 M79.70979475458547 20.62863086501464 C74.0253522536821 15.873877957035248, 66.41607419116815 4.867210428188519, 56.95660992956221 -1.0127174640950365 M84.82903795731649 23.61726989375755 C77.1284974810351 17.803365838961238, 70.7301739842078 10.421292340016977, 53.475419961497785 -1.5336659020688934 M80.72466489596226 19.62518495771016 C76.9615454715248 11.775564530443813, 68.668558204238 9.105554410228637, 64.76152788352013 3.011006591907634 M84.55222937202015 19.99000874797727 C79.50483563396564 13.700534730942472, 74.2436336733238 7.093753506599233, 62.28809575799644 -0.031124561959014585 M81.7651019875932 12.363994768107904 C77.46594427078405 10.55663228502327, 74.49230294467615 5.521413407630658, 68.6744642048207 2.9990769326274522 M83.52648475356804 12.271491140066308 C80.03520017673914 8.796845032152476, 77.0586087654469 6.94532788645229, 70.82190802824393 3.0598773956817813" stroke="#fd7e14" stroke-width="0.5" fill="none"></path><path d="M-1.082961146906018 0.3824776995927097 C11.99784234405525 0.3288611378623017, 63.610121695809184 -6.357517057107962, 75.94559591097936 1.5466463659572405 C88.28107012614954 9.450809789022443, 84.84336815413819 39.96357056714539, 72.92988414411505 47.80745823798393 C61.0164001340919 55.65134590882247, 16.396441928068683 56.34627321595239, 4.464691850840499 48.60997239098848 C-7.4670582263876835 40.873671566024576, 2.4911865348492146 9.643497117995224, 1.339383680745959 1.3896532882004973 M3.5246214455366136 -1.8782025021314621 C16.406129071597928 -1.7958469828364287, 62.08778108923397 -3.4476037157794615, 73.3715784834902 4.111404036642889 C84.65537587774642 11.67041178906524, 82.81693408891049 36.9514746271565, 71.22740581107398 43.47584401240264 C59.63787753323747 50.00021339764878, 15.939989390964193 49.99252131190684, 3.8344088164711487 43.257620348119744 C-8.271171758021897 36.522719384332646, -0.6936403141792534 10.920000998143356, -1.406077635884285 3.0664382296800614" stroke="#d9480f" stroke-width="1" fill="none"></path></g></g><g><g transform="translate(686.8918596060515 38.95186485928605) rotate(0 -36.549149054499026 3.6701547786625355)" fill-rule="evenodd"><path d="M-4.229289319323781 3.174808476284479 L-30.07389594207714 -12.186073083430529 L-55.271199050169386 -9.52020136401601 L-70.78669134899974 16.02684557383951 L-18.40171832909208 10.824066988008674 L-9.630614177243665 9.069335413038733 L-2.8237524292938736 1.8460271099362127" stroke="none" stroke-width="0" fill="#40c057" fill-rule="evenodd"></path><path d="M-4.2158796328626895 0.8737836396101468 C-8.147827290775298 -0.297377231952767, -20.057167550386108 -6.178145733472239, -27.64378704878698 -7.599685074016452 C-35.230406547187854 -9.021224414560663, -44.43613989525271 -9.641442942807311, -49.735596623267924 -7.655452403655126 C-55.03505335128314 -5.6694618645029395, -56.06758139250197 0.28116686566885196, -59.44052741687826 4.3162581608966635 C-62.81347344125455 8.351349456124474, -72.05367527453387 14.773860780932848, -69.97327276952565 16.555095367711743 C-67.89287026451743 18.336329954490637, -56.39306598234245 16.608195939793884, -46.95811238682892 15.003665681570034 C-37.523158791315396 13.399135423346182, -20.496679392798885 9.904605720772489, -13.363551196444513 6.927913818368637 C-6.23042300009014 3.951221915964785, -6.006756805405003 -1.80684951091624, -4.159343208702686 -2.8564857328530797 M0.33446627859544487 -0.8987243647721062 C-3.680456748611648 -2.8406031170608808, -20.241559901422377 -11.007989271950258, -28.69766658450673 -11.578753802180291 C-37.153773267591085 -12.149518332410324, -45.466919100937574 -6.091147223377461, -50.402173819910686 -4.323311546152308 C-55.3374285388838 -2.5554758689271546, -54.51624212751804 -4.754506428274355, -58.30919489834539 -0.9717397388293696 C-62.10214766917274 2.8110269506156156, -75.57258054038668 15.937772799991913, -73.15989044487476 18.373288590517603 C-70.74720034936284 20.808804381043295, -54.15599398236044 14.71070707088679, -43.83305432527389 13.641355004324774 C-33.51011466818734 12.572002937762758, -17.328537073800113 13.622486110587065, -11.22225250235546 11.957176191145503 C-5.115967930910806 10.291866271703942, -8.095793399363739 5.98772350696408, -7.195346896605971 3.649495487675404" stroke="#2b8a3e" stroke-width="1" fill="none"></path></g></g><g><g transform="translate(686.3064637635829 39.09798924017758) rotate(0 32.65855396788959 -9.916917462473094)" fill-rule="evenodd"><path d="M-3.4338102750480175 -2.658191237898835 L27.21374297996811 7.837639195276875 L45.80264118559229 8.511788663434285 L57.71782707624739 1.6839073624706837 L65.88176572216014 -8.60871260241576 L71.05395014453659 -21.67673744030893 L64.19590791360343 -29.10467341064529 L52.99845681762718 -24.574785966426134 L24.040396826632726 -25.940702172587397 L11.919755648985836 -16.39768903741435 L1.0281664915382862 -2.577691350432404" stroke="none" stroke-width="0" fill="#40c057" fill-rule="evenodd"></path><path d="M2.1017921518534424 -0.7934422775379502 C7.968000259235723 0.6342650198443605, 28.070480656447835 9.137045712392723, 37.37853969513012 9.264154315231409 C46.68659873381241 9.391262918070094, 52.75930867479251 4.4885999098324305, 57.950146383947185 -0.030790660505834122 C63.14098409310186 -4.550181230844098, 69.6959939481723 -13.05746889560361, 68.5235659500582 -17.852189106798175 C67.3511379519441 -22.64690931799274, 58.935852475519106 -27.577024499403258, 50.915578395262585 -28.79911192767322 C42.895304315006065 -30.021199355943182, 27.24777549366195 -27.325267407451825, 20.40192146851908 -25.18471367641795 C13.556067443376211 -23.044159945384074, 13.380985285368215 -20.370830584569052, 9.840454244405361 -15.955789541469969 C6.299923203442507 -11.540748498370885, 0.8278396784291222 -0.8399897491605417, -0.8412647772580384 1.3055325821765575 M-0.2017591792345046 -3.0397452238223637 C5.18547497283441 -2.6171681911991165, 26.250637412963133 5.270506129310722, 35.689019600213896 4.99965261415955 C45.12740178746466 4.728799099008378, 50.89376039021717 -0.03264482655589607, 56.42853394427007 -4.664866314729395 C61.963307498322976 -9.297087802902894, 70.29132374730285 -18.852735064391684, 68.89766092453131 -22.793676314881445 C67.50399810175976 -26.734617565371206, 55.69595223966253 -28.721309532028258, 48.066557007640824 -28.31051381766796 C40.43716177561912 -27.899718103307663, 29.17163231896896 -21.952453012694672, 23.12128953240107 -20.328902028719664 C17.070946745833183 -18.705351044744656, 16.23796794116661 -22.267719206887758, 11.764500288233492 -18.56920791381792 C7.291032635300374 -14.870696620748081, -1.0561816011095488 -1.444507693690193, -3.7195163851976396 1.8621657296993654" stroke="#2b8a3e" stroke-width="1" fill="none"></path></g></g><g><g transform="translate(684.0776493146551 36.30642905460019) rotate(0 -1.7571960638249493 36.439680076189376)"><path d="M0.2964401667445594 0.8012676950544118 C3.306792621995064 6.65244389804212, 16.22876854177739 27.90232156389751, 16.568430970654354 34.436216060117346 C16.908093399531317 40.97011055633718, 7.782598063114448 37.170969716655115, 2.334414740006329 40.00463467237343 C-3.1137685831017903 42.83829962809174, -12.881464872984202 47.17063824314072, -16.120668967994362 51.43820579442721 C-19.359873063004525 55.7057733457137, -19.811959879363542 62.06590246870358, -17.10080983005464 65.61003998009235 C-14.389659780745736 69.15417749148114, -2.9998842957264045 71.49422189703175, 0.1462313278590609 72.70303086275987 M-0.6238010741330985 0.1763292896188795 C2.2597291354003572 5.720882484951444, 15.066202284639589 25.75652326490157, 15.406662192073183 32.55550516835274 C15.747122099506777 39.3544870718039, 6.722907230004086 38.144764646356954, 1.4189583704684687 40.97022071032588 C-3.8849904890671483 43.79567677429481, -13.07641323571092 45.85822106172711, -16.417030965140523 49.50824155216631 C-19.757648694570126 53.158262042605514, -21.571723896248855 59.097043397884704, -18.624748006109147 62.87034365296111 C-15.677772115969441 66.64364390803752, -1.7260917934609812 70.61209875129128, 1.2648243756977187 72.14804308262475" stroke="#2b8a3e" stroke-width="2" fill="none"></path></g></g><g transform="translate(332.3082208944264 279.2834432294346) rotate(0 31 13)"><text x="0" y="18" font-family="Virgil, Segoe UI Emoji" font-size="20px" fill="#000000" text-anchor="start" style="white-space: pre;" direction="ltr">Server</text></g><g transform="translate(18.508220894426472 368.8834432294346) rotate(0 28.5 13)"><text x="0" y="18" font-family="Virgil, Segoe UI Emoji" font-size="20px" fill="#000000" text-anchor="start" style="white-space: pre;" direction="ltr">Client</text></g><g transform="translate(619.3082208944264 427.11010989610196) rotate(0 67.19999999999982 70.18666666666661)"><path d="M33.417671289667396 -1.1891764607280493 M32.44722659923127 -1.524828502908349 C57.00723181076332 -1.6875147957652814, 82.61775315083541 -0.6612274188846357, 100.92793115712675 -0.6351143214851618 M33.593252272717564 0.28045635391026735 C48.281193904094266 0.4637196023240697, 63.42945791553689 -0.6874555688127864, 100.707703365199 0.7491415338590741 M100.79999999999973 0 C122.05593657754328 -1.0854653920978308, 133.90005804561042 10.501919678226084, 134.02196182273292 33.31914515830567 M99.76478765271577 1.2647842559963465 C124.36332719149034 -1.8331395533867179, 132.5206184697334 12.774152517598093, 134.86094437958636 33.64614703087127 M132.77932954169773 34.216307308897285 C136.48155626744094 51.70419363610438, 134.5306387254602 68.19481700859956, 133.38818580247425 105.49020458561674 M134.51426382791215 33.229237164743154 C135.85675611746524 49.02507698542617, 134.2836390103123 64.0612627610042, 134.90053384434395 106.04253367790326 M134.39999999999964 106.77333333333328 C134.23812921307945 127.50857790884862, 123.79090470336344 139.93426940617448, 99.93966547511491 139.16548261818772 M136.34517212174796 106.17682224688426 C134.15341161908546 130.90559822487944, 122.55857982756537 140.980189757229, 102.88534792186665 140.40286977160088 M99.86454680301222 141.11206154925114 C77.55037904627599 140.70992266682273, 57.29136608995482 140.02773683813697, 33.09789265729478 139.1497936139751 M100.42936031352701 141.22502760895824 C85.7666436276955 140.46202627336717, 70.95450811099242 139.60801983391977, 34.3451396835967 141.0110002339754 M33.59999999999991 140.3733333333332 C12.513813975080819 139.48772446093446, -1.2258795592933893 130.74112668213735, 1.6379218008369207 106.89658153233424 M32.55274012349537 140.09183458266145 C11.733814726490499 138.9439957575809, -0.15411913869902483 127.88838919270152, -0.260122727137059 108.38917170035958 M0.9043432269245386 108.32524020773664 C-0.10663787726461904 83.54344898188604, -0.1731788933664562 58.84959987944853, 1.0178915653377771 32.243750419840126 M-0.8645344423130155 106.83126844176397 C-0.11282249173472358 83.49544570281847, -0.30250530323336555 59.62103825470549, 0.18375721108168364 33.74433612395069 M0 33.59999999999991 C1.461213519796729 9.43781410790977, 12.72480291388926 -0.2385436501353979, 32.098078456148414 0.7451567444950342 M1.2594643142074347 33.201911107078104 C1.6251175683923065 13.45014386503023, 12.694508875627042 -0.36206460567191234, 33.42870723726219 -2.2729501125402747" stroke="#000000" stroke-width="1" fill="none"></path></g><g transform="translate(646.1882208944254 445.77677656276825) rotate(0 42.559999999999945 46.293333333333294)"><path d="M31.59673662998192 1.4935765558212282 C38.83611344877856 -1.291840400221139, 48.833626572886246 -1.1059119072714245, 56.49621005831784 1.8717272390883153 C64.15879354374944 4.8493663854480555, 72.81087849410962 12.278774489223437, 77.57223754257149 19.359411433979666 C82.33359659103336 26.440048378735895, 84.8409632689667 35.73031936341424, 85.06436434908909 44.355548907625696 C85.28776542921148 52.98077845183715, 82.94479745340827 63.839161936993776, 78.91264402330583 71.11078869924843 C74.88049059320339 78.38241546150309, 68.02872020309006 84.37161762057247, 60.87144376847445 87.98530948115364 C53.71416733385884 91.5990013417348, 43.856106654695196 94.08801465298401, 35.96898541561215 92.79293986273541 C28.08186417652911 91.4978650724868, 19.44201705992279 86.25011017161661, 13.548716333976184 80.21486073966199 C7.655415608029578 74.17961130770736, 2.467836774297096 64.97162551775006, 0.6091810599325171 56.581443271007664 C-1.2494746544320616 48.19126102426527, -0.35504130989378213 37.73739729748392, 2.3967820477887116 29.87376725920765 C5.148605405471205 22.010137220931377, 11.83437737178491 14.21427594987386, 17.12012120602748 9.399663041350017 C22.40586504027005 4.585050132826174, 30.895358716554842 2.4344901916961765, 34.111245053244126 0.986089808064591 C37.32713138993341 -0.4623105755669943, 36.4408753011009 -0.1569194199051248, 36.41543922616319 0.7092607395605057 M27.8527530935551 2.849865730505371 C34.89955129284856 -0.1469161248217561, 47.36334654926251 0.09246212931609499, 55.1619377214148 2.308527776886848 C62.960528893567094 4.524593424457601, 69.82992117829677 9.909757125599416, 74.64430012646886 16.14625961592989 C79.45867907464095 22.382762106260362, 83.30774449480825 31.025564458027105, 84.04821141044734 39.727542718869685 C84.78867832608643 48.429520979712265, 82.41071379316355 60.50451393022061, 79.08710162030339 68.35812918098536 C75.76348944744322 76.2117444317501, 70.85316933572028 82.60895918650182, 64.10653837328636 86.84923422345815 C57.35990741085243 91.08950926041449, 46.49316220798518 94.6806762772828, 38.60731584569982 93.79977940272333 C30.721469483414467 92.91888252816386, 22.759579837849905 87.00603954488888, 16.791460199574217 81.56385297610134 C10.82334056129853 76.12166640731381, 5.501425275430618 69.27317321793274, 2.7985980160456947 61.14665998999813 C0.09577075666077173 53.02014676206352, -1.3372030480089532 41.20671542634025, 0.5744966432646805 32.8047736084937 C2.486196334538314 24.40283179064714, 9.727930709411932 15.730669054941888, 14.268796163687497 10.7350090829188 C18.809661617963062 5.739349110895714, 25.363023250671503 3.8325439065360447, 27.819689368918063 2.8308137763551784 C30.276355487164622 1.8290836461743123, 28.650399929867106 3.8400615026355553, 29.00879287316686 4.724628301833604" stroke="#000000" stroke-width="1" fill="none"></path></g><g transform="translate(683.5215542277591 445.7767765627685) rotate(0 6.346666666666579 6.346666666666692)"><path d="M3.289203550194675 1.1712381150573492 M3.289957909966482 0.09160532666742727 C4.865713376919389 0.2213242353096586, 7.97500471728537 -0.5743391613667165, 10.003870791340788 -0.07569785164296572 M2.8597321004147096 0.22421911958108165 C5.787457974187983 0.21092559298872776, 7.7307189304604504 -0.24646063597003426, 9.763387510466 0.2438510414287428 M9.519999999999923 0 C10.857574432599781 -1.9267861936241388, 12.796980902527666 0.22959036240146347, 11.249766990517474 4.782399273936921 M8.085272370353264 0.2625893261283636 C11.364614372863858 -0.8018297064118087, 11.971575128914065 1.4674922602230387, 12.060099106908984 3.323989608505094 M12.87135590845833 3.114390530283226 C13.254618286283216 5.084686593880249, 12.733261009843545 8.155551683152737, 12.42734446325391 9.277919067874581 M12.754020652539925 2.989585426362825 C12.404554612263931 5.110890447633955, 12.7668498797664 7.123740098319959, 12.670846315073367 9.329141578150324 M12.69333333333323 9.520000000000033 C11.485987409924364 11.84048668618833, 11.866162329423664 12.312914725368229, 8.854782937541527 14.000511404102054 M13.506708249424792 7.940574655756388 C10.424810221673198 10.756432614080211, 10.492047598376363 14.42073234103, 9.013089217226876 11.002938095548508 M9.15274863758179 12.61215138087174 C7.568529102851886 13.094644114049776, 6.761467186326727 12.608675602627304, 2.807672891840316 13.24749535832306 M9.780161937005738 12.820861207835382 C7.857588475805954 12.349890877063086, 5.8090777663761894 12.905170389071111, 3.3392851306671627 12.589875769250103 M3.1733333333333076 12.69333333333334 C-0.21024245536162667 12.08865946156284, -0.2124642338603735 11.774522881466497, 1.2096059117466211 10.406965921148691 M3.2651223796357454 11.44238739830753 C0.06708281710536079 12.456886715510247, -0.9146889385767281 9.485801518313188, -0.47291407557204357 11.284658061880652 M-0.05447457974652503 10.036227722182907 C0.5215823643788743 6.976577782789875, -0.22335749262720553 4.852864707613973, -0.44779626665016437 3.0770791967858604 M-0.06202829097956475 9.709699458790357 C0.030086271450917225 7.9715028777594545, 0.19847995814283872 6.9465784652059375, 0.04287387912223778 3.0903524428531264 M0 3.1733333333333076 C-1.3804142083972692 -0.9164757668061476, 1.8649271675364751 1.9081930425018072, 1.980700756882602 -1.5670978520065546 M-1.6136453952640295 2.8964585433651746 C1.7134465905837715 2.8381518470102627, -0.305526300521783 -0.45116359768435355, 1.9968987988245728 -0.6714152711443602" stroke="#000000" stroke-width="1" fill="none"></path></g><g transform="translate(680.9082208944259 526.0434432294351) rotate(0 6.346666666666579 6.346666666666692)"><path d="M5.118566430633241 -1.65316023491323 M2.9312524012078605 -0.006007960890730191 C4.570983203331593 0.17183410845845803, 7.2945680246203555 -0.34089692693302753, 9.062898589149045 0.07913015038271687 M2.9824749114836013 -0.10554777391006465 C5.552228044715975 -0.1870681495288993, 7.548827321035105 0.04108701177239386, 9.459640247536125 0.12905548668652672 M9.519999999999923 0 C10.165646653133868 -1.9726287927478552, 11.928878601615525 0.0634230324046392, 11.113907989089585 2.732541348313266 M11.022086093649191 -0.8021734561771154 C10.304655135027556 -0.2941993025131522, 11.598801720955617 2.5223166979828555, 10.721194738962895 3.0712444828760863 M13.24749535832296 3.197774945641532 C13.295550329924028 5.252762911130978, 13.205473140319587 8.317097947950186, 13.22539350956172 8.906100058461256 M12.589875769249991 3.3652574713304397 C12.88373116773655 5.168062771660579, 12.647057653926707 7.531466305531576, 12.715382815711097 9.534563862013353 M12.69333333333323 9.520000000000033 C14.227818604533768 10.774081676709999, 11.429949800926684 11.897951647614446, 8.269054064974112 12.282103702401129 M10.823981996600724 10.061624585166607 C12.495920202949293 13.506338792457779, 13.61318406199613 10.998967730881033, 10.394403162021113 11.408367258192358 M9.423745863452478 12.169908051555367 C7.633452329585888 13.006570927706862, 5.986401486759336 13.027952624248966, 3.19715053528048 12.357488525296262 M9.437019109519744 12.50410229786983 C7.006749232150558 12.48288238809209, 4.677542620263955 12.829975812332835, 3.476099962743592 12.437301597284783 M3.1733333333333076 12.69333333333334 C0.4739384115652818 14.183286890362707, 1.5481513645499945 10.45007374833857, -0.276874789968133 8.497013448253307 M2.7810171614338697 11.19939957556626 C3.3317780392223675 11.159953525544463, 0.8232982230372725 13.664079787745674, -1.9278843509964643 11.214493049662593 M-0.5863645729869659 9.979697346434035 C-0.4302751499041955 8.051506824652373, -0.38877008446306355 6.991118452325472, 0.0565095100551849 3.1465598738044243 M-0.26725457291553667 9.743844127583042 C0.02234507343967778 7.767353088530418, -0.06522617596586605 6.42657128562282, -0.00805531657487163 3.3858136143758655 M0 3.1733333333333076 C-1.7091601584106684 2.1877711364047308, 2.9671920598463792 1.3368097338825464, 1.8349690805126966 -0.18084790371358395 M1.1426642443984747 4.719074692105227 C-0.46795419035479413 3.0410551615038592, 0.6403676198774655 -0.8057320055551827, 1.4266320045975092 -1.619839405734092" stroke="#000000" stroke-width="1" fill="none"></path></g><g transform="translate(663.3615542277599 486.0967765627684) rotate(0 7.466666666666697 7.46666666666664)"><path d="M9.978836109744215 0.2049551022009517 C11.61723138947723 0.4538546500484416, 13.48031470970712 1.524002135136296, 14.254934082830555 2.800544786365679 C15.029553455953991 4.077087437595062, 15.101371388503509 6.214978919781826, 14.626552348484832 7.864211009577251 C14.151733308466156 9.513443099372676, 12.654483873354616 11.392885047135639, 11.406019842718495 12.69593732513823 C10.157555812082373 13.99898960314082, 8.63766040912958 15.726101377800962, 7.135768164668105 15.682524677592793 C5.633875920206628 15.638947977384625, 3.5673366398315025 13.656894812476665, 2.3946663759496367 12.43447712388922 C1.2219961120677707 11.212059435301775, 0.36704179442894497 9.85336846654717, 0.09974658137690895 8.34801854606812 C-0.16754863167512707 6.842668625589069, -0.09148957333809549 4.56699658473635, 0.7908950976374207 3.4023776010149143 C1.6732797686129368 2.237758617293479, 3.806216767087861 1.919968913048817, 5.394054607230006 1.3603046437395072 C6.981892447372152 0.8006403744301974, 9.248329717306957 0.0937927309743373, 10.317922138490296 0.044391985159055736 C11.387514559673635 -0.005008760656225832, 11.679493066517045 0.9496048496632968, 11.811609134330043 1.0639001688478178 M8.991476110983013 1.3085318470112837 C10.51855975341011 1.747964237727162, 14.447404450362512 3.4501491656389724, 15.32189221367506 4.917933111474909 C16.196379976987608 6.3857170573108455, 14.696278877588181 8.848766683779317, 14.238402690858301 10.115235522026904 C13.78052650412842 11.38170436027449, 13.854523655054228 11.742591313474362, 12.574635093295779 12.516746140960429 C11.29474653153733 13.290900968446495, 8.249436832352272 14.687482789927175, 6.559071320307605 14.7601644869433 C4.868705808262938 14.832846183959424, 3.6739564401063465 14.078659358701287, 2.432442021027776 12.952836323057177 C1.1909276019492052 11.827013287413067, -0.8829784620904628 9.713884854611246, -0.8900151941638192 8.005226273078634 C-0.8970519262371757 6.296567691546021, 1.3768617856868557 4.083182861180687, 2.3902216285876374 2.7008848338615 C3.403581471488419 1.3185868065423139, 4.08178387002035 -0.009215856323254723, 5.190143863240872 -0.2885618908364824 C6.2985038564613935 -0.5679079253497101, 8.079881656161376 0.9904599176211236, 9.040381587910769 1.024808626782134 C10.000881519660162 1.059157335943144, 10.790527959330335 -0.33224717471503296, 10.953143453737232 -0.08246963587042089" stroke="#000000" stroke-width="1" fill="none"></path></g><g transform="translate(700.6948875610925 485.35010989610197) rotate(0 7.466666666666697 7.46666666666664)"><path d="M6.307115764917189 -0.26730901595599654 C7.728353967560766 -0.7299431913715484, 9.816566499572982 0.4484697721617795, 11.26319083998117 1.020879981265126 C12.70981518038936 1.5932901903684722, 14.332868149081726 1.6720326345972023, 14.986861807366317 3.167152238664082 C15.640855465650908 4.662271842730962, 15.613041646443772 8.329062834745125, 15.18715278968872 9.991597605666403 C14.76126393293367 11.65413237658768, 13.69333123808305 12.247138457968722, 12.43152866683601 13.142360864191748 C11.16972609558897 14.037583270414773, 9.406017337238852 15.45650236896303, 7.61633736220648 15.362932043004559 C5.826657387174106 15.269361717046088, 2.972531084080334 13.74441180960082, 1.693448816641772 12.58093890844093 C0.4143665492032105 11.417466007281039, 0.009780490506170914 10.025476722161816, -0.05815624242488937 8.382094636045217 C-0.12609297535594965 6.738712549928617, 0.2187890368195997 3.9803683941458354, 1.2858284190554103 2.7206463917413304 C2.3528678012912208 1.4609243893368251, 5.334726127441523 1.268381617097383, 6.344080050989974 0.8237626216181857 C7.353433974538425 0.3791436261389884, 7.358681768241499 0.21308302484975453, 7.341951960346118 0.05293241886614641 M8.345864845553194 1.28842151434546 C9.98457340791451 1.3546309727130228, 13.265623757868426 0.5640828118313569, 14.28410490760363 1.342097914159421 C15.302586057338836 2.120113016487485, 14.785521595615098 4.211654682001412, 14.456751743964427 5.956512128313844 C14.127981892313755 7.701369574626276, 13.418811892675283 10.415005786521858, 12.311485797699607 11.811242592034013 C11.204159702723931 13.207479397546168, 9.058828366183114 14.005660770851518, 7.81279517411037 14.333932961386772 C6.566761982037626 14.662205151922025, 5.895377796867807 14.44499603224355, 4.835286645263141 13.780875735245537 C3.775195493658474 13.116755438247525, 2.3311260857727785 11.639090804684546, 1.4522482644823702 10.349211179398695 C0.573370443191962 9.059331554112845, -0.9243752550145636 7.54080170245633, -0.43798028247930887 6.041597983530428 C0.0484146900559459 4.5423942646045266, 2.9505595634271256 2.4986100201082264, 4.370618099693899 1.3539888658432844 C5.790676635960672 0.2093677115783421, 7.597618912932877 -0.4639643406701131, 8.082370935121332 -0.8261289420592259 C8.567122957309788 -1.1882935434483388, 7.477337423081121 -1.1922768412073663, 7.279130232824631 -0.8189987424913925" stroke="#000000" stroke-width="1" fill="none"></path></g><g><g transform="translate(440.7082208944265 213.88344322943465) rotate(0 74.24738596162757 -45.265096074715274)"><path d="M1.1895282212644813 -0.2832313422113657 C25.79485277173421 -15.328522285198176, 123.91232236462339 -75.22047059970599, 148.13988011516636 -90.24696080721917 M0.354891808088869 -1.4775317422114314 C24.83999045874303 -16.377232682065422, 123.50267273709802 -74.3676408763292, 147.68527171200145 -89.04918997978794" stroke="#000000" stroke-width="1" fill="none"></path></g><g transform="translate(440.7082208944265 213.88344322943465) rotate(0 74.24738596162757 -45.265096074715274)"><path d="M128.2545088452033 -64.23262008363592 C134.1335834404089 -75.02138350901602, 140.29832292994686 -80.0935983050838, 145.77689446134497 -88.32745641900229 M127.80900008294054 -65.38608326940077 C133.237888636486 -72.25041156202276, 137.63310205121684 -76.51637360071456, 146.7426114054211 -88.20484892057257" stroke="#000000" stroke-width="1" fill="none"></path></g><g transform="translate(440.7082208944265 213.88344322943465) rotate(0 74.24738596162757 -45.265096074715274)"><path d="M117.74512639187239 -81.85853517577965 C127.22549453582434 -86.71763574673915, 136.98788711015834 -85.75601096325049, 145.77689446134497 -88.32745641900229 M117.29961762960963 -83.0119983615445 C125.35706223594045 -85.68005029377926, 132.27490193299593 -85.71516462482367, 146.7426114054211 -88.20484892057257" stroke="#000000" stroke-width="1" fill="none"></path></g></g><g><g transform="translate(451.1082208944264 361.08344322943464) rotate(0 75.45865477705377 50.63156493939459)"><path d="M-0.5306684497743844 -0.6967390593141317 C24.473471072937066 16.388828411077462, 124.14817124170568 84.9073417051385, 149.30886784754702 101.95986893810334 M1.391591884754598 1.5518689892068505 C26.814883368077393 18.31172712975492, 126.73234227464852 83.12727288855862, 151.44797800388196 100.02622538182887" stroke="#000000" stroke-width="1" fill="none"></path></g><g transform="translate(451.1082208944264 361.08344322943464) rotate(0 75.45865477705377 50.63156493939459)"><path d="M121.12428998010085 91.16841437723481 C129.8616175847333 94.86356945020721, 136.30132820744632 94.76824122345562, 149.6774846659974 100.54231235694142 M122.7121173338391 93.18260667622083 C130.7376593685559 95.42012697966118, 138.9004483465613 97.72064954179788, 151.38563910499224 100.86523707613351" stroke="#000000" stroke-width="1" fill="none"></path></g><g transform="translate(451.1082208944264 361.08344322943464) rotate(0 75.45865477705377 50.63156493939459)"><path d="M132.47175612317236 74.07002221546459 C138.40300887661692 81.82435344521404, 142.1155160950125 85.83838256079792, 149.6774846659974 100.54231235694142 M134.0595834769106 76.08421451445061 C138.60558976795488 83.38624383871814, 143.34463507212692 90.84567247367231, 151.38563910499224 100.86523707613351" stroke="#000000" stroke-width="1" fill="none"></path></g></g><g><g transform="translate(457.5082208944265 288.2834432294346) rotate(0 74.39039127579895 0.7913117544404429)"><path d="M-0.906346183642745 -0.6366306189447641 C23.891755873337377 -0.3855714642753166, 122.5936045352369 0.41785375637314637, 147.60339291729028 0.9795105215162266 M0.8186833406053484 1.6435343607701363 C26.06776768868788 2.090767319841935, 125.06162804728369 2.3008037666914554, 149.6871287352405 2.191178796533518" stroke="#000000" stroke-width="1" fill="none"></path></g><g transform="translate(457.5082208944265 288.2834432294346) rotate(0 74.39039127579895 0.7913117544404429)"><path d="M120.43921302819439 10.468185067659263 C126.18330107093996 11.195807541400239, 134.77839126327126 9.217669448117068, 149.2473088423721 3.6451301460154584 M122.19069427905418 12.219645320920293 C129.26031627080854 8.794344940024207, 136.8211732333237 6.940430204080553, 148.80659172730515 1.789268749486678" stroke="#000000" stroke-width="1" fill="none"></path></g><g transform="translate(457.5082208944265 288.2834432294346) rotate(0 74.39039127579895 0.7913117544404429)"><path d="M120.43138922964869 -10.053022040452472 C126.08695597562756 -5.195822782076531, 134.68362056435504 -3.0444431829743506, 149.2473088423721 3.6451301460154584 M122.18287048050848 -8.301561787191442 C129.16807298733667 -5.8930445922614805, 136.73115409572014 -1.913199967413865, 148.80659172730515 1.789268749486678" stroke="#000000" stroke-width="1" fill="none"></path></g></g><g transform="translate(673.5082208944265 240.78932558237597) rotate(0 16.5 44.647058823529335)"><text x="0" y="62.294117647058656" font-family="Virgil, Segoe UI Emoji" font-size="69.88235294117635px" fill="#000000" text-anchor="start" style="white-space: pre;" direction="ltr">?</text></g><g transform="translate(647.1082208944266 329.08344322943464) rotate(0 46.5 10.5)"><text x="0" y="15" font-family="Virgil, Segoe UI Emoji" font-size="16px" fill="#000000" text-anchor="start" style="white-space: pre;" direction="ltr">Your Device</text></g><g><g transform="translate(93.86106581083618 291.4859957034422) rotate(0 74.28260724370602 -1.4785352953227857)"><path d="M-0.36892691217362883 -0.470977533236146 C24.492548260754763 -1.0071705167642144, 124.28983732345908 -2.483886356230035, 148.9341413995857 -2.486093057409471 M1.6382477295957507 -1.7638446835242212 C26.41854435836044 -2.2595429932041378, 123.60122444362773 -1.4462086950309123, 148.3239298439073 -1.5480972093311902" stroke="#000000" stroke-width="1" fill="none"></path></g><g transform="translate(93.86106581083618 291.4859957034422) rotate(0 74.28260724370602 -1.4785352953227857)"><path d="M119.32246477030014 9.71404229595688 C126.05545970780706 4.547789930919386, 137.3049789008288 3.895914723491778, 150.03339026071603 -0.1843174353955146 M120.44453658874875 9.242790628479689 C127.53437431943365 6.078734401973557, 134.14026789142926 3.7417904494932506, 148.9157440294 -2.0855492914808744" stroke="#000000" stroke-width="1" fill="none"></path></g><g transform="translate(93.86106581083618 291.4859957034422) rotate(0 74.28260724370602 -1.4785352953227857)"><path d="M119.37409097908811 -10.807101364190466 C126.2176268737204 -10.218545200290704, 137.45266796817032 -5.115453159632762, 150.03339026071603 -0.1843174353955146 M120.49616279753671 -11.278353031667656 C127.48039442575637 -9.29785946129061, 134.07334668137202 -6.49069892074156, 148.9157440294 -2.0855492914808744" stroke="#000000" stroke-width="1" fill="none"></path></g></g><g transform="translate(660.4311124606917 181.4834432294345) rotate(0 25 10.5)"><text x="0" y="15" font-family="Virgil, Segoe UI Emoji" font-size="16px" fill="#000000" text-anchor="start" style="white-space: pre;" direction="ltr">Plants</text></g><g transform="translate(630.4311124606917 582.4834432294344) rotate(0 57 10.5)"><text x="0" y="15" font-family="Virgil, Segoe UI Emoji" font-size="16px" fill="#000000" text-anchor="start" style="white-space: pre;" direction="ltr">Power Sockets</text></g><g><g transform="translate(423.2607567921177 211.26423357941366) rotate(0 -62.80574593315964 80.81227348761334)" fill-rule="evenodd"><path d="M-154.40934791516503 30.075612837748032 C-154.40934791516503 30.075612837748032, -154.40934791516503 30.075612837748032, -154.40934791516503 30.075612837748032 M-154.40934791516503 30.075612837748032 C-154.40934791516503 30.075612837748032, -154.40934791516503 30.075612837748032, -154.40934791516503 30.075612837748032 M-155.6998431092546 36.562237226566765 C-152.67315662375248 33.95417730291022, -149.22958585885877 32.060753510458525, -145.6656250210159 28.142398825725927 M-155.00333017413027 36.33812861347059 C-152.21451511511998 32.77784378208219, -149.15525144796734 29.50282357122277, -147.2489963825472 27.623406347511725 M-152.64551227816372 41.16582512033074 C-151.67413648364274 36.525443670648606, -149.783464428345 36.46591235711967, -138.72611243025523 26.153727929553142 M-153.7519788238871 42.91919650711952 C-150.11923666316676 38.15400995947139, -147.2832758633624 34.05318025040055, -140.58009331327986 24.64252344749694 M-154.80374381144986 48.35162015186814 C-146.55917366021419 39.21669179119432, -141.46011219709033 34.098848255288985, -132.93688066454325 22.159351108303134 M-153.89053590701417 47.81037516726372 C-149.37561588920835 41.72518792662904, -141.49346039168952 33.0854053474015, -133.32030418572668 23.922560062898164 M-153.23081041248506 54.59985987029519 C-148.27333217978105 44.768151132970004, -141.3104702897885 37.912075139319676, -124.07530530868354 21.88231632731376 M-154.20438309786832 55.27276373493966 C-147.6998297655008 47.9258593469042, -141.17117989516944 39.45514346301004, -125.39349735761317 21.433922445061484 M-155.47469357962248 61.915539285232875 C-142.18388254285193 48.76917517728733, -133.43027409806825 34.794864749911724, -116.75715432300089 20.347606711874313 M-155.1839762600371 61.13127299125269 C-140.4619067228449 45.113882463688995, -125.4563193426011 28.688628646456813, -118.3491260919985 18.27834542826057 M-155.66678627318697 68.58926652197047 C-139.37991345825574 50.017143903867044, -125.52270508821259 32.86890236744972, -113.18275295584849 16.275061021605758 M-153.99595615657972 67.22982527047648 C-139.9232976635834 50.18501012340336, -125.47903594642916 33.56975061654847, -111.50772437747023 17.579567918600766 M-156.0230387415317 75.10650534012898 C-137.21879724755365 50.637808876987854, -118.47386862783091 28.687217578263798, -102.54266083057959 14.781002391129078 M-154.32804427608374 74.18434697871639 C-137.311242153871 53.44145000043897, -120.6511352656645 33.09315163581633, -104.71033401511599 15.028711634687426 M-156.90569463700047 79.60391345455213 C-140.59981034396512 62.30977533546758, -120.69670271821164 40.795049836059285, -96.423349032519 12.07986707073357 M-155.79452894862732 80.68285691480054 C-139.9860444355636 62.46282237623744, -124.2086718619785 45.72910334103285, -96.06793170549496 12.429659848294222 M-152.94867295794648 86.7974233748609 C-135.20505625137545 60.765484643251874, -114.91131814949021 37.49067560387083, -88.30834593501991 11.39344694504021 M-154.40539728779805 85.25729710983427 C-141.7010875277852 70.65826760451688, -129.1352938166779 54.129846788568, -90.80632487469471 11.452049903026506 M-155.11930416469457 91.43858072634461 C-125.28696756150718 60.69953284086041, -99.80762567411148 28.101127047079416, -80.9839142864356 7.652518273669983 M-155.97182130665513 91.58362114809128 C-134.52755386357853 70.12446094322029, -114.90874766346238 47.684804014234686, -83.01557876130289 7.176651954989637 M-156.2194760055979 96.2237867686242 C-124.54041946818822 65.53751036978153, -95.72266211065265 27.677322881927424, -75.94472829709082 6.198470431912163 M-155.9510537437861 97.23478668567688 C-130.18637724434532 69.74871146005592, -106.00930518332838 43.13479297882962, -74.39944350337862 6.640747713457266 M-156.29131060400977 102.49592713632067 C-138.21306158595098 83.44829280737159, -115.72642464795967 59.42191502096737, -66.23896043634831 3.937838849164976 M-154.19585515027865 104.22613419119646 C-125.15196386590314 71.00345217044845, -96.44906611330481 37.34504121190038, -67.46419093551903 2.836413379311992 M-154.0228415452549 110.94600057972332 C-130.24575230428246 80.32388975202485, -105.71862823843446 51.65673542392359, -61.15425366453282 -0.1825183492822866 M-154.70392097669185 110.56076568642368 C-127.8908249063982 78.36034256575067, -100.03009488815178 45.74909344670178, -61.548336820783234 1.0294462868274827 M-154.24915970268654 117.5223614834531 C-117.75952601942083 75.71799915115527, -81.15442551333605 32.66695017648152, -55.71886725898811 0.7338221764141188 M-154.46277739911335 115.98253726496387 C-130.92677365152895 87.47957182280209, -105.7197600234704 58.88752454055098, -54.66753667674938 -0.4876425776681437 M-156.01414935364846 122.88705818735379 C-127.81756818778382 91.19217659950947, -100.86069426619557 58.546077024999434, -49.419471959029465 1.7438968817662612 M-155.85526743512128 122.27614741314518 C-122.02027139317008 84.71537425645599, -89.34325083579319 44.95489564954019, -51.57613092046711 1.6591693253215567 M-152.0716340055319 124.32507550515527 C-116.15414016147949 82.64024436193719, -77.57412275929899 38.77507012876535, -45.07805967603858 4.9557595357267985 M-153.50444676984125 125.02012952868188 C-120.62879136247406 86.07716991940373, -86.7210036222104 47.4041337281045, -46.9878045785525 3.659570286233617 M-147.50770280164258 128.74776884759237 C-118.53171015840489 93.73720848207758, -86.43240080765088 54.52371703429442, -42.850033783368715 3.5130770229167183 M-149.23966016181336 127.43403604379316 C-121.50978722132449 94.68614483104388, -95.277374044027 64.13941093812468, -42.91742757709319 4.347260148673399 M-147.30550217331478 128.0738492597316 C-110.08413377161233 92.26345318564265, -77.56591570178902 53.46466645632478, -37.66170911634464 8.032629343625302 M-145.00508309510627 129.6031734625299 C-122.49487265296025 101.46840251967102, -98.0232480613738 73.30606876151245, -38.462304741648325 6.481200309414561 M-143.09485389789225 131.17630258141676 C-114.88899257248879 99.03411254475947, -86.37359593388746 69.04524665977986, -34.055398769329074 9.758842552250767 M-141.9530898372981 131.2692715212203 C-113.12892457253841 98.05740338867817, -83.38224276170412 64.31049899847628, -33.991012594314995 7.743896656839693 M-136.58975509872826 132.3198894472688 C-106.47389191358891 95.78146395061214, -75.58624309375764 60.236706885570655, -32.87538632764679 9.0389653990824 M-137.2255034394765 132.11173318846966 C-114.92791421024305 107.60657290844556, -94.20369978885469 80.35846660171555, -30.173121585652346 10.060326212722458 M-135.65011436114753 132.617483607577 C-100.96447206059413 93.64564540988745, -63.078358555130876 50.00625063556507, -25.45695363566052 9.722892688518412 M-134.35908185220057 134.04772298605164 C-109.34537900868067 104.38267392193345, -82.48653401388677 76.04800826850861, -27.511973862757493 11.841510490445442 M-129.78289755850332 135.93931444696233 C-93.92774296796767 92.84567407568346, -55.695569699295646 46.812016956209604, -24.312353028695032 11.638341920848092 M-130.13041375155794 136.9851595075716 C-99.69317341872646 102.43511236665506, -71.42999275400518 69.66150540018498, -23.374405501189575 13.303442136782309 M-126.20386396813942 138.36930530526857 C-98.90876327203443 107.19458443847434, -72.05211839132903 74.32045606254147, -17.975894130103566 13.745386230692421 M-126.96140465512676 137.1228037393577 C-90.10098523430831 95.79380449166214, -54.764734806682114 54.227354242555705, -20.179583302036203 15.465367870338415 M-123.96294821340899 139.1331543171167 C-91.10544963996318 103.3512963611221, -60.03696252575852 65.84791132848437, -14.409620938239367 14.838083127672377 M-122.38840886399458 139.72208990001525 C-86.37907097673084 95.76967312988452, -47.689337560658515 53.762326559167974, -15.148431878885003 15.695167222219112 M-118.00599637963688 142.054672732796 C-94.87616168924454 113.70737736258992, -72.03683975128205 87.05470765570257, -10.408988913427198 16.246103237077254 M-117.46771557872063 141.40721376131796 C-87.5489292017322 105.20304624416903, -57.56081392090414 70.5986895243817, -11.053060744795108 18.25473127669807 M-114.67591184017627 143.46502743692741 C-83.5016657791344 104.91521986319586, -49.220564779093564 68.5336799003972, -8.447951775029798 18.989263238305256 M-115.62044472539245 141.9181251668711 C-74.70152970951607 98.20388405896179, -35.11746350377882 51.78467228679732, -7.405601109363635 18.29824560965787 M-111.11833234338043 144.90436968913198 C-86.13488264040491 116.5521058223847, -62.78482184749265 92.25753337385775, -1.3649337333719256 22.25270250664568 M-110.38197404259769 143.65590677278013 C-84.46819714929295 114.46233585904872, -57.387160477212866 85.03282906063532, -2.487928110649717 20.19111693037218 M-104.68730709957411 143.82346386469897 C-74.40961692773632 105.25039715982518, -41.68807469161054 68.85403970046887, -0.5518572578163212 23.78670647149673 M-106.15136616839548 146.22815278831865 C-65.95821177311129 99.42037392158849, -26.25758454562559 53.161959362587496, 0.11556141674953047 22.75354643972358 M-102.44644260711058 147.49292997324935 C-73.45223807116903 111.56787576780651, -45.179334123048186 78.97242566972577, 3.359884691312251 22.381883258147695 M-102.03626446637347 147.20196149459204 C-63.910025634575675 100.97968367515617, -22.799582095196868 55.370078393061945, 5.488226709774969 23.579456471985736 M-99.23063876833358 148.45958197962688 C-71.37732616039777 119.25654100389713, -46.747363217827434 90.23266941386804, 7.654341865660552 27.023696626219564 M-99.25837914160975 149.40402356542842 C-75.89544594602486 122.53432407839448, -51.547503640244535 95.20531610551492, 8.192346279838983 25.03477343326401 M-93.77147083159633 149.47450864345257 C-72.42191163469704 126.24766770348488, -49.42360492818899 98.2237688519142, 12.125329641875338 27.59409471033331 M-95.62261918269195 150.69245290693317 C-69.3652649576116 121.0928621830121, -43.07934733907214 91.50588662818365, 13.519690825853955 26.80280654216375 M-90.75892550722361 150.94941184001564 C-54.195045487244734 107.3247400491579, -17.01431250729307 67.5477716142313, 15.670751934631841 27.573138760778225 M-90.9225784776792 153.2568749783799 C-63.212335711006205 119.85873455888033, -35.468463513499906 87.33290953926144, 15.742096147260742 29.429626570458627 M-86.34254679356867 152.8658490789371 C-58.21053590886527 119.36463454697537, -27.412749735789014 82.78415361898116, 21.447514399567332 31.193536081952516 M-86.78543164015913 154.37141931087396 C-65.73727837129877 128.15191393309462, -42.29091972561701 101.36900019832179, 19.92262634696224 29.32234878153122 M-81.53711306398475 157.47686224483795 C-50.41200766769166 118.8671517121209, -16.57072752354361 77.8347027026303, 26.185552201357037 31.91581667414548 M-83.42136109621936 154.94009824802077 C-53.66858724151592 122.29922101815794, -24.77794240373899 88.35197335738049, 24.8858515993993 32.06805957215519 M-77.6283141537966 158.0086063380075 C-42.074286596449376 117.5718582591847, -7.574413672506026 72.88301255987652, 29.34274321664772 35.58286617197809 M-79.372984171419 157.042185686594 C-49.99780242011218 123.11855931179204, -19.58630668969463 87.16071192557705, 27.029011353484307 33.43209941093591 M-75.6738971863575 158.56959199306667 C-43.77747658201717 123.13107558184376, -11.052337585790852 86.9504380451606, 33.04317191809563 33.876264165294096 M-76.36024891684573 159.68520959519893 C-42.847875309235704 119.61881514785689, -8.438707290303086 81.32847429332242, 31.916528216639144 35.65815115920149 M-72.56540268901114 159.60702379985923 C-40.10150890587735 127.41614933577875, -12.953215928981479 93.34337391028882, 31.35933422941397 40.52733210027388 M-71.68592022507761 161.10504033516372 C-47.846162319560776 134.6133188147703, -24.499210883663302 106.32797263146901, 32.218462809842634 41.52303797211668 M-66.4974875061203 160.0801715627834 C-36.60741782911698 124.90774361216529, -0.3949006855160775 87.44758649120662, 32.683700047202045 48.16986083542458 M-67.04865274321178 160.78301191987094 C-40.35113404546592 128.40555422417975, -12.2219949581377 96.44685732810822, 31.7383262894597 48.033200854673005 M-59.0614838280572 156.65257988101462 C-24.314781572201348 118.74080757471613, 12.641169585047209 75.67687459289101, 32.48215071911609 54.36238308558991 M-58.98029990185484 157.48188159498045 C-34.16226146354076 130.7609390484781, -9.763070629049501 102.70149807745796, 30.82276782541221 54.29072110569855 M-53.243489481108625 155.67666395073326 C-25.720096155622343 123.9772530675729, 3.0725343670213263 93.49406449914974, 32.44889224680286 58.74270636039087 M-52.18775420502796 155.07417564065696 C-21.467283070510284 121.82698733460174, 9.461804099954165 86.2271946666082, 31.17273780411255 59.49160325629869 M-43.70886443463732 150.8011467013375 C-27.122059129375852 132.79199116111621, -8.625165608205428 114.1565109243629, 30.444719169937617 66.48425128511676 M-42.18119373732824 152.99337650778304 C-14.762866853389273 119.08595254116935, 14.307649074225871 83.93684076964749, 30.438001712501592 66.2258633907471 M-35.456380119977545 147.71036417789392 C-17.76241395974967 131.5286920388178, -4.963478670036906 111.79338163313165, 30.99586874016709 74.20529411938854 M-35.27198148282434 148.81697820040964 C-10.83906089050289 122.57016410718859, 10.97707993563921 96.04956919604626, 30.3722443119917 73.23052166514911 M-26.631483314473023 143.54292722024624 C-9.896903377760344 127.6567088238398, 5.998006725842039 109.93351226776375, 31.232284805147547 81.42530507804997 M-25.729679209094336 144.52889795486485 C-14.70433242196188 130.5871657454423, -0.5225274590251026 115.03026784475857, 31.427583522504765 78.68969062833287 M-16.619855170467545 140.08393104323818 C-6.247087386443868 124.74349497345364, 9.909003402069661 110.65466101514555, 32.10617683753522 84.24773875094479 M-19.219356496216406 141.55543581997676 C-2.3997459773352716 121.84157458069569, 15.22290776267058 103.87942850706261, 29.629379451462647 86.76111564162647 M-11.484911215304834 138.20245523671355 C2.9157648990650458 122.5191829347707, 16.082419253860778 110.8527778263839, 31.61057896397689 91.04282452269399 M-10.582840736768645 138.04652465707358 C6.382776067002695 120.01999979492328, 21.027423151294016 103.08191631286438, 30.451043422777744 91.1027152986353 M-3.405301351328646 134.28906376551603 C9.038727389592367 121.5423511121252, 21.118774056383977 106.30224161380852, 28.717613849147774 99.90390489358688 M-2.619967135829185 135.15698013998335 C6.80191728473425 124.82274306132204, 15.038246735301733 114.6235552331421, 30.408551860890903 97.17266974613304 M7.887590144117262 130.69330496948945 C11.45356125142051 123.0963053391325, 18.691324571015954 115.68994734419354, 31.877346869694627 102.5566779982444 M6.130171289023842 132.32775075503426 C13.839558091821376 123.87279425385955, 19.587549078527168 114.79097500344393, 30.215550464714504 103.98241320272498 M15.016085589698648 128.91592114370027 C19.76201280445634 125.60613483819859, 23.410867239469788 117.82670235045236, 30.956049998273713 109.81553592651032 M13.95191467872182 128.32187738127718 C19.890364967253532 121.87732380668574, 24.032852629234643 116.25488333398951, 30.377868091670436 110.39672227973931 M23.349769696665305 125.22031306518916 C23.095469336074597 122.9036857265059, 25.517873567664697 121.68668635247431, 30.068757839236994 116.11586535221137 M22.608959534603482 125.47298017881553 C25.128794320661456 122.09529177176447, 28.286183806480214 118.94748594520522, 29.306218564013605 116.88251104398802" stroke="#be4bdb" stroke-width="0.5" fill="none"></path><path d="M-55.59461321223802 -0.01172609068450825 C-81.6069295874878 9.285676860577379, -111.05165149415211 18.139595755783706, -153.38926410256127 29.205705483830293 M-55.67695790723241 -0.8724981648847212 C-91.22122438649333 12.096128974976903, -125.2635664439457 22.31797940168146, -154.58270288491795 30.722242344557067 M-155.20938062248925 30.361172040379365 C-154.90006027989386 58.8824559542876, -153.98910069196305 82.98529156028349, -155.49122325357587 124.34435662577306 M-154.3739347555692 30.168614138304015 C-155.09910637084266 51.04376074310157, -155.93718550240337 73.04478507345115, -154.9618931033516 123.64003810143475 M-156.0116724151054 125.7428804332987 C-125.86180285109091 137.99492991782574, -93.75801428151286 152.5961002579209, -66.96231409673042 160.09607101637266 M-156.13867642663956 123.13223966813092 C-121.38769394786607 137.02266696288152, -88.79769821448835 152.05434341704887, -68.38717786640323 162.49704514011137 M-67.93163105611153 162.19712473112486 C-46.26195849276388 152.96452996413268, -27.026740638069505 145.47140305998542, 25.386153991715005 122.2599465100937 M-67.47758881420292 161.27018390163175 C-48.23604416163667 153.37683733818432, -27.0433174299147 145.8365177516629, 27.606409084432713 124.19352708653588 M27.20380907823234 122.28862778832246 C26.914902129397557 94.26410035069637, 29.81585625757984 70.52617623531661, 28.202342584154476 32.329053167627634 M27.20710684024631 123.47489796475548 C26.521569974978938 92.01265166845465, 27.435616772557026 59.90946089503505, 29.850531518815924 34.05711821038413 M30.527184560320247 34.77608466558296 C1.1069180191352395 20.707178061544326, -29.23010676724053 11.212140372142901, -55.216094273219774 -0.5240207407623281 M29.129886806367804 33.816203627177956 C-1.404693344482677 21.375834709721026, -29.62017806475625 9.345188248859944, -55.61017775729574 0.6721194284037004 M-55.3868691894067 2.4868995751603507e-14 C-55.3868691894067 2.4868995751603507e-14, -55.3868691894067 2.4868995751603507e-14, -55.3868691894067 2.4868995751603507e-14 M-55.3868691894067 2.4868995751603507e-14 C-55.3868691894067 2.4868995751603507e-14, -55.3868691894067 2.4868995751603507e-14, -55.3868691894067 2.4868995751603507e-14" stroke="#881fa3" stroke-width="1" fill="none"></path></g></g></svg>